<?xml version="1.0" encoding="UTF-8" standalone="no"?>
<!DOCTYPE svg PUBLIC "-//W3C//DTD SVG 1.1//EN"
 "http://www.w3.org/Graphics/SVG/1.1/DTD/svg11.dtd">
<!-- Generated by graphviz version 2.40.1 (20161225.0304)
 -->
<!-- Title: G Pages: 1 -->
<svg width="576pt" height="372pt"
 viewBox="0.00 0.00 576.00 371.61" xmlns="http://www.w3.org/2000/svg" xmlns:xlink="http://www.w3.org/1999/xlink">
<g id="graph0" class="graph" transform="scale(.6636 .6636) rotate(0) translate(4 556)">
<title>G</title>
<polygon fill="#ffffff" stroke="transparent" points="-4,4 -4,-556 864,-556 864,4 -4,4"/>
<!-- headera -->
<g id="node1" class="node">
<title>headera</title>
<polygon fill="#c0c0c0" stroke="transparent" points="33,-70 33,-92 72,-92 72,-70 33,-70"/>
<polygon fill="none" stroke="#000000" points="33,-70 33,-92 72,-92 72,-70 33,-70"/>
<text text-anchor="start" x="49.3927" y="-76.4" font-family="Times,serif" font-size="14.00" fill="#000000">a</text>
<polygon fill="none" stroke="#000000" points="33,-48 33,-70 72,-70 72,-48 33,-48"/>
<text text-anchor="start" x="45.1094" y="-54.4" font-family="Times,serif" font-size="14.00" fill="#000000">nil</text>
<polygon fill="none" stroke="#000000" points="33,-26 33,-48 72,-48 72,-26 33,-26"/>
<text text-anchor="start" x="36.7521" y="-32.4" font-family="Times,serif" font-size="14.00" fill="#000000">len: 0</text>
<polygon fill="none" stroke="#000000" points="33,-4 33,-26 72,-26 72,-4 33,-4"/>
<text text-anchor="start" x="35.5901" y="-10.4" font-family="Times,serif" font-size="14.00" fill="#000000">cap: 0</text>
</g>
<!-- headerb -->
<g id="node2" class="node">
<title>headerb</title>
<polygon fill="#c0c0c0" stroke="transparent" points="8,-412 8,-434 96,-434 96,-412 8,-412"/>
<polygon fill="none" stroke="#000000" points="8,-412 8,-434 96,-434 96,-412 8,-412"/>
<text text-anchor="start" x="48.5" y="-418.4" font-family="Times,serif" font-size="14.00" fill="#000000">b</text>
<polygon fill="none" stroke="#000000" points="8,-390 8,-412 96,-412 96,-390 8,-390"/>
<text text-anchor="start" x="10.7854" y="-396.4" font-family="Times,serif" font-size="14.00" fill="#000000">0xc00012e040</text>
<polygon fill="none" stroke="#000000" points="8,-368 8,-390 96,-390 96,-368 8,-368"/>
<text text-anchor="start" x="36.2521" y="-374.4" font-family="Times,serif" font-size="14.00" fill="#000000">len: 8</text>
<polygon fill="none" stroke="#000000" points="8,-346 8,-368 96,-368 96,-346 8,-346"/>
<text text-anchor="start" x="35.0901" y="-352.4" font-family="Times,serif" font-size="14.00" fill="#000000">cap: 8</text>
</g>
<!-- array0 -->
<g id="node6" class="node">
<title>array0</title>
<polygon fill="none" stroke="#000000" points="148,-276 148,-298 236,-298 236,-276 148,-276"/>
<text text-anchor="start" x="150.7854" y="-282.4" font-family="Times,serif" font-size="14.00" fill="#000000">0xc00012e040</text>
<polygon fill="none" stroke="#000000" points="236,-276 236,-298 324,-298 324,-276 236,-276"/>
<text text-anchor="start" x="238.7854" y="-282.4" font-family="Times,serif" font-size="14.00" fill="#000000">0xc00012e048</text>
<polygon fill="none" stroke="#000000" points="324,-276 324,-298 412,-298 412,-276 324,-276"/>
<text text-anchor="start" x="326.7854" y="-282.4" font-family="Times,serif" font-size="14.00" fill="#000000">0xc00012e050</text>
<polygon fill="none" stroke="#000000" points="412,-276 412,-298 500,-298 500,-276 412,-276"/>
<text text-anchor="start" x="414.7854" y="-282.4" font-family="Times,serif" font-size="14.00" fill="#000000">0xc00012e058</text>
<polygon fill="none" stroke="#000000" points="500,-276 500,-298 588,-298 588,-276 500,-276"/>
<text text-anchor="start" x="502.7854" y="-282.4" font-family="Times,serif" font-size="14.00" fill="#000000">0xc00012e060</text>
<polygon fill="none" stroke="#000000" points="588,-276 588,-298 676,-298 676,-276 588,-276"/>
<text text-anchor="start" x="590.7854" y="-282.4" font-family="Times,serif" font-size="14.00" fill="#000000">0xc00012e068</text>
<polygon fill="none" stroke="#000000" points="676,-276 676,-298 764,-298 764,-276 676,-276"/>
<text text-anchor="start" x="678.7854" y="-282.4" font-family="Times,serif" font-size="14.00" fill="#000000">0xc00012e070</text>
<polygon fill="none" stroke="#000000" points="764,-276 764,-298 852,-298 852,-276 764,-276"/>
<text text-anchor="start" x="766.7854" y="-282.4" font-family="Times,serif" font-size="14.00" fill="#000000">0xc00012e078</text>
<polygon fill="none" stroke="#000000" points="148,-254 148,-276 236,-276 236,-254 148,-254"/>
<text text-anchor="start" x="188.5" y="-260.4" font-family="Times,serif" font-size="14.00" fill="#000000">1</text>
<polygon fill="none" stroke="#000000" points="236,-254 236,-276 324,-276 324,-254 236,-254"/>
<text text-anchor="start" x="276.5" y="-260.4" font-family="Times,serif" font-size="14.00" fill="#000000">2</text>
<polygon fill="none" stroke="#000000" points="324,-254 324,-276 412,-276 412,-254 324,-254"/>
<text text-anchor="start" x="364.5" y="-260.4" font-family="Times,serif" font-size="14.00" fill="#000000">3</text>
<polygon fill="none" stroke="#000000" points="412,-254 412,-276 500,-276 500,-254 412,-254"/>
<text text-anchor="start" x="452.5" y="-260.4" font-family="Times,serif" font-size="14.00" fill="#000000">4</text>
<polygon fill="none" stroke="#000000" points="500,-254 500,-276 588,-276 588,-254 500,-254"/>
<text text-anchor="start" x="540.5" y="-260.4" font-family="Times,serif" font-size="14.00" fill="#000000">5</text>
<polygon fill="none" stroke="#000000" points="588,-254 588,-276 676,-276 676,-254 588,-254"/>
<text text-anchor="start" x="628.5" y="-260.4" font-family="Times,serif" font-size="14.00" fill="#000000">6</text>
<polygon fill="none" stroke="#000000" points="676,-254 676,-276 764,-276 764,-254 676,-254"/>
<text text-anchor="start" x="716.5" y="-260.4" font-family="Times,serif" font-size="14.00" fill="#000000">7</text>
<polygon fill="none" stroke="#000000" points="764,-254 764,-276 852,-276 852,-254 764,-254"/>
<text text-anchor="start" x="804.5" y="-260.4" font-family="Times,serif" font-size="14.00" fill="#000000">8</text>
</g>
<!-- headerb&#45;&gt;array0 -->
<g id="edge4" class="edge">
<title>headerb:ptr&#45;&gt;array0:address0xc00012e040</title>
<path fill="none" stroke="#000000" d="M96,-401C147.7731,-401 100.0924,-302.4677 137.8798,-288.6115"/>
<polygon fill="#000000" stroke="#000000" points="138.6749,-292.0291 148,-287 137.574,-285.1162 138.6749,-292.0291"/>
</g>
<!-- headerc -->
<g id="node3" class="node">
<title>headerc</title>
<polygon fill="#c0c0c0" stroke="transparent" points="8,-298 8,-320 96,-320 96,-298 8,-298"/>
<polygon fill="none" stroke="#000000" points="8,-298 8,-320 96,-320 96,-298 8,-298"/>
<text text-anchor="start" x="48.8927" y="-304.4" font-family="Times,serif" font-size="14.00" fill="#000000">c</text>
<polygon fill="none" stroke="#000000" points="8,-276 8,-298 96,-298 96,-276 8,-276"/>
<text text-anchor="start" x="10.7854" y="-282.4" font-family="Times,serif" font-size="14.00" fill="#000000">0xc00012e060</text>
<polygon fill="none" stroke="#000000" points="8,-254 8,-276 96,-276 96,-254 8,-254"/>
<text text-anchor="start" x="36.2521" y="-260.4" font-family="Times,serif" font-size="14.00" fill="#000000">len: 2</text>
<polygon fill="none" stroke="#000000" points="8,-232 8,-254 96,-254 96,-232 8,-232"/>
<text text-anchor="start" x="35.0901" y="-238.4" font-family="Times,serif" font-size="14.00" fill="#000000">cap: 4</text>
</g>
<!-- headerc&#45;&gt;array0 -->
<g id="edge1" class="edge">
<title>headerc:ptr&#45;&gt;array0:address0xc00012e060</title>
<path fill="none" stroke="#000000" d="M96,-287C116.1574,-287 119.9936,-295.5371 140,-298 314.7296,-319.5102 535.1982,-471.4504 543.7436,-308.1385"/>
<polygon fill="#000000" stroke="#000000" points="547.246,-308.0853 544,-298 540.2482,-307.9083 547.246,-308.0853"/>
</g>
<!-- headerd -->
<g id="node4" class="node">
<title>headerd</title>
<polygon fill="#c0c0c0" stroke="transparent" points="8,-184 8,-206 96,-206 96,-184 8,-184"/>
<polygon fill="none" stroke="#000000" points="8,-184 8,-206 96,-206 96,-184 8,-184"/>
<text text-anchor="start" x="48.5" y="-190.4" font-family="Times,serif" font-size="14.00" fill="#000000">d</text>
<polygon fill="none" stroke="#000000" points="8,-162 8,-184 96,-184 96,-162 8,-162"/>
<text text-anchor="start" x="10.7854" y="-168.4" font-family="Times,serif" font-size="14.00" fill="#000000">0xc00012e070</text>
<polygon fill="none" stroke="#000000" points="8,-140 8,-162 96,-162 96,-140 8,-140"/>
<text text-anchor="start" x="36.2521" y="-146.4" font-family="Times,serif" font-size="14.00" fill="#000000">len: 2</text>
<polygon fill="none" stroke="#000000" points="8,-118 8,-140 96,-140 96,-118 8,-118"/>
<text text-anchor="start" x="35.0901" y="-124.4" font-family="Times,serif" font-size="14.00" fill="#000000">cap: 2</text>
</g>
<!-- headerd&#45;&gt;array0 -->
<g id="edge2" class="edge">
<title>headerd:ptr&#45;&gt;array0:address0xc00012e070</title>
<path fill="none" stroke="#000000" d="M96,-173C154.8969,-173 91.9344,-263.9627 140,-298 347.5984,-445.0094 710.2816,-552.9019 719.8085,-308.0049"/>
<polygon fill="#000000" stroke="#000000" points="723.3079,-308.0652 720,-298 716.3092,-307.9311 723.3079,-308.0652"/>
</g>
<!-- headere -->
<g id="node5" class="node">
<title>headere</title>
<polygon fill="#c0c0c0" stroke="transparent" points="8,-526 8,-548 96,-548 96,-526 8,-526"/>
<polygon fill="none" stroke="#000000" points="8,-526 8,-548 96,-548 96,-526 8,-526"/>
<text text-anchor="start" x="48.8927" y="-532.4" font-family="Times,serif" font-size="14.00" fill="#000000">e</text>
<polygon fill="none" stroke="#000000" points="8,-504 8,-526 96,-526 96,-504 8,-504"/>
<text text-anchor="start" x="10.7854" y="-510.4" font-family="Times,serif" font-size="14.00" fill="#000000">0xc00012e080</text>
<polygon fill="none" stroke="#000000" points="8,-482 8,-504 96,-504 96,-482 8,-482"/>
<text text-anchor="start" x="36.2521" y="-488.4" font-family="Times,serif" font-size="14.00" fill="#000000">len: 8</text>
<polygon fill="none" stroke="#000000" points="8,-460 8,-482 96,-482 96,-460 8,-460"/>
<text text-anchor="start" x="35.0901" y="-466.4" font-family="Times,serif" font-size="14.00" fill="#000000">cap: 8</text>
</g>
<!-- array1 -->
<g id="node7" class="node">
<title>array1</title>
<polygon fill="none" stroke="#000000" points="149,-504 149,-526 237,-526 237,-504 149,-504"/>
<text text-anchor="start" x="151.7854" y="-510.4" font-family="Times,serif" font-size="14.00" fill="#000000">0xc00012e080</text>
<polygon fill="none" stroke="#000000" points="237,-504 237,-526 325,-526 325,-504 237,-504"/>
<text text-anchor="start" x="239.7854" y="-510.4" font-family="Times,serif" font-size="14.00" fill="#000000">0xc00012e088</text>
<polygon fill="none" stroke="#000000" points="325,-504 325,-526 413,-526 413,-504 325,-504"/>
<text text-anchor="start" x="327.7854" y="-510.4" font-family="Times,serif" font-size="14.00" fill="#000000">0xc00012e090</text>
<polygon fill="none" stroke="#000000" points="413,-504 413,-526 501,-526 501,-504 413,-504"/>
<text text-anchor="start" x="415.7854" y="-510.4" font-family="Times,serif" font-size="14.00" fill="#000000">0xc00012e098</text>
<polygon fill="none" stroke="#000000" points="501,-504 501,-526 588,-526 588,-504 501,-504"/>
<text text-anchor="start" x="503.6781" y="-510.4" font-family="Times,serif" font-size="14.00" fill="#000000">0xc00012e0a0</text>
<polygon fill="none" stroke="#000000" points="588,-504 588,-526 675,-526 675,-504 588,-504"/>
<text text-anchor="start" x="590.6781" y="-510.4" font-family="Times,serif" font-size="14.00" fill="#000000">0xc00012e0a8</text>
<polygon fill="none" stroke="#000000" points="675,-504 675,-526 763,-526 763,-504 675,-504"/>
<text text-anchor="start" x="677.7854" y="-510.4" font-family="Times,serif" font-size="14.00" fill="#000000">0xc00012e0b0</text>
<polygon fill="none" stroke="#000000" points="763,-504 763,-526 851,-526 851,-504 763,-504"/>
<text text-anchor="start" x="765.7854" y="-510.4" font-family="Times,serif" font-size="14.00" fill="#000000">0xc00012e0b8</text>
<polygon fill="none" stroke="#000000" points="149,-482 149,-504 237,-504 237,-482 149,-482"/>
<text text-anchor="start" x="189.5" y="-488.4" font-family="Times,serif" font-size="14.00" fill="#000000">1</text>
<polygon fill="none" stroke="#000000" points="237,-482 237,-504 325,-504 325,-482 237,-482"/>
<text text-anchor="start" x="277.5" y="-488.4" font-family="Times,serif" font-size="14.00" fill="#000000">2</text>
<polygon fill="none" stroke="#000000" points="325,-482 325,-504 413,-504 413,-482 325,-482"/>
<text text-anchor="start" x="365.5" y="-488.4" font-family="Times,serif" font-size="14.00" fill="#000000">3</text>
<polygon fill="none" stroke="#000000" points="413,-482 413,-504 501,-504 501,-482 413,-482"/>
<text text-anchor="start" x="453.5" y="-488.4" font-family="Times,serif" font-size="14.00" fill="#000000">4</text>
<polygon fill="none" stroke="#000000" points="501,-482 501,-504 588,-504 588,-482 501,-482"/>
<text text-anchor="start" x="541" y="-488.4" font-family="Times,serif" font-size="14.00" fill="#000000">5</text>
<polygon fill="none" stroke="#000000" points="588,-482 588,-504 675,-504 675,-482 588,-482"/>
<text text-anchor="start" x="628" y="-488.4" font-family="Times,serif" font-size="14.00" fill="#000000">6</text>
<polygon fill="none" stroke="#000000" points="675,-482 675,-504 763,-504 763,-482 675,-482"/>
<text text-anchor="start" x="715.5" y="-488.4" font-family="Times,serif" font-size="14.00" fill="#000000">7</text>
<polygon fill="none" stroke="#000000" points="763,-482 763,-504 851,-504 851,-482 763,-482"/>
<text text-anchor="start" x="803.5" y="-488.4" font-family="Times,serif" font-size="14.00" fill="#000000">8</text>
</g>
<!-- headere&#45;&gt;array1 -->
<g id="edge3" class="edge">
<title>headere:ptr&#45;&gt;array1:address0xc00012e080</title>
<path fill="none" stroke="#000000" d="M96,-515C115.691,-515 123.0366,-515 138.6768,-515"/>
<polygon fill="#000000" stroke="#000000" points="139,-518.5001 149,-515 139,-511.5001 139,-518.5001"/>
</g>
</g>
</svg>

